<?xml version="1.0" encoding="UTF-8" standalone="no"?>
<svg
   t="1724471387049"
   class="icon"
   viewBox="0 0 1024 1024"
   version="1.1"
   p-id="8336"
   width="200"
   height="200"
   id="svg1"
   sodipodi:docname="android.svg"
   inkscape:version="1.3.2 (091e20e, 2023-11-25, custom)"
   xmlns:inkscape="http://www.inkscape.org/namespaces/inkscape"
   xmlns:sodipodi="http://sodipodi.sourceforge.net/DTD/sodipodi-0.dtd"
   xmlns="http://www.w3.org/2000/svg"
   xmlns:svg="http://www.w3.org/2000/svg">
  <defs
     id="defs1" />
  <sodipodi:namedview
     id="namedview1"
     pagecolor="#ffffff"
     bordercolor="#000000"
     borderopacity="0.25"
     inkscape:showpageshadow="2"
     inkscape:pageopacity="0.0"
     inkscape:pagecheckerboard="0"
     inkscape:deskcolor="#d1d1d1"
     inkscape:zoom="5.995"
     inkscape:cx="99.916597"
     inkscape:cy="100"
     inkscape:window-width="2560"
     inkscape:window-height="1494"
     inkscape:window-x="-11"
     inkscape:window-y="-11"
     inkscape:window-maximized="1"
     inkscape:current-layer="svg1" />
  <path
     d="M235.555161 774.52539c0 26.741667 21.8276 48.569267 48.683548 48.569266h55.654666v137.593876c0 34.855591 27.998754 63.311468 62.397222 63.311468 34.51275 0 62.397223-28.341596 62.397223-63.311468V822.980376h97.138534v137.593876c0 34.855591 27.998754 63.311468 62.397222 63.311467 34.51275 0 62.397223-28.341596 62.397223-63.311467V822.980376h55.654666c26.855948 0 48.683547-21.8276 48.683547-48.569267V322.774068h-555.403851v451.751322z m408.096122-685.798048l51.312002-74.282408c2.971296-4.342664 2.285613-10.170976-1.714209-13.027991-3.999822-2.742735-9.713853-1.371368-12.68515 2.971296l-53.254773 77.253704c-35.084153-13.827956-74.168127-21.484758-115.194872-21.484758-41.026745 0-80.11072 7.656802-115.194873 21.484758l-53.254773-77.139423c-2.971296-4.342664-8.685328-5.828312-12.685149-2.971297-3.999822 2.742735-4.685506 8.456766-1.71421 13.027992l51.312002 74.282408c-81.596368 37.941168-138.736682 109.823683-146.050642 193.819945h555.403851c-7.542521-84.110542-64.797116-155.993057-146.279204-193.934226zM394.862357 205.864986a30.741489 30.741489 0 1 1 30.741488-30.741489 30.821485 30.821485 0 0 1-30.741488 30.741489z m238.160828 0a30.741489 30.741489 0 1 1 30.741489-30.741489 30.821485 30.821485 0 0 1-30.741489 30.741489z m255.302922 115.080592c-34.51275 0-62.397223 28.341596-62.397222 63.311468v247.303278c0 34.855591 27.998754 63.311468 62.397222 63.311468 34.51275 0 62.397223-28.341596 62.397223-63.311468V384.142765c0.114281-34.969872-27.770193-63.197187-62.397223-63.197187z m-752.652214 0c-34.51275 0-62.397223 28.341596-62.397223 63.311468v247.303278c0 34.855591 27.998754 63.311468 62.397223 63.311468 34.51275 0 62.397223-28.341596 62.397222-63.311468V384.142765c0-34.969872-27.998754-63.197187-62.397222-63.197187z"
     p-id="8337"
     fill="#ebeaea"
     id="path1"
     style="fill:#ffffff" />
</svg>
